<svg xmlns="http://www.w3.org/2000/svg" viewBox="0 0 99.74 38.58"><defs><style>.cls-1,.cls-2{fill:#ededed;}.cls-2{font-size:8.39px;font-family:FuturaBT-Book, Futura Bk BT;letter-spacing:0.04em;}</style></defs><g id="Camada_2" data-name="Camada 2"><g id="Camada_1-2" data-name="Camada 1"><path class="cls-1" d="M98.61,29.79A4.84,4.84,0,0,0,98,27.14L88.84,11.36a4.9,4.9,0,0,0-8.49,0L71.24,27.14a4.92,4.92,0,0,0-.65,2.65h4.33a.57.57,0,0,1,0-.5l9.11-15.78a.59.59,0,0,1,.53-.3.56.56,0,0,1,.52.3l9.11,15.78a.57.57,0,0,1,0,.5Z"/><polygon class="cls-1" points="4.32 29.8 4.32 29.79 4.32 29.79 4.32 29.8"/><polygon class="cls-1" points="65.77 13.11 74.11 13.11 74.11 9.47 53.8 9.47 53.8 13.11 62.14 13.11 62.14 29.82 65.77 29.82 65.77 13.11"/><path class="cls-1" d="M45.66,26.16a2.9,2.9,0,0,1-2.47-2.47V9.92a12.83,12.83,0,0,0-2.09.62,13.19,13.19,0,0,0-1.54.71V23.34a6.29,6.29,0,0,0,.67,2.85,6.44,6.44,0,0,0,2.94,3,6.25,6.25,0,0,0,2.84.67H56.32V26.19Z"/><path class="cls-1" d="M28.72,15.84c-.92.46-1.83.94-2.72,1.44l-1.06.6,6.29,10.9a1.44,1.44,0,0,1,.18,1h4.32A5.78,5.78,0,0,0,35,26.63Z"/><path class="cls-1" d="M43.43,2.9A92.49,92.49,0,0,0,25.18,9.71l-2.3-4a5.79,5.79,0,0,0-10,0L.78,26.63A5.77,5.77,0,0,0,0,29.79H4.32A103.69,103.69,0,0,1,98.7,5.67,94.25,94.25,0,0,0,43.43,2.9ZM10.06,19.15,16.57,7.88h0a1.49,1.49,0,0,1,2.59,0l2.22,3.84A94.66,94.66,0,0,0,10.06,19.15Z"/><text class="cls-2" transform="translate(61.65 36.6) scale(0.92 1)">Aerospace</text></g></g></svg>